<svg width="100" height="23" viewBox="0 0 100 23" fill="none" xmlns="http://www.w3.org/2000/svg">
<rect y="0.00927734" width="5" height="20.3" fill="#1567FB"/>
<path d="M2.50005 12.9597C3.85862 13.5768 5.01466 13.6352 6.60719 13.6597C8.19973 13.6843 10.8939 13.6997 12.2858 13.125C13.6777 12.5503 14.1886 12.042 15.0001 11.025C15.8115 10.008 16.0618 8.14506 16.0713 6.96322C16.0808 5.78138 15.6326 3.93107 14.8376 2.90693C14.0426 1.88279 13.6683 1.56329 12.2858 0.976328C10.9032 0.38937 8.58092 -0.000700365 6.98811 0.00970178C5.39529 0.0201039 3.21434 -0.165069 1.78577 0.709734L3.21434 4.20953C3.88657 3.91236 6.18187 4.03964 6.96434 4.03453C7.74681 4.02942 8.75005 4.03473 9.46434 4.20953C10.1435 4.49787 10.6106 4.80538 11.0011 5.30849C11.3916 5.8116 11.595 6.38267 11.5903 6.96325C11.5856 7.54383 11.3731 8.11305 10.9745 8.61266C10.8089 8.82023 10.6136 9.01267 10.3929 9.18698C9.74591 9.69796 8.90918 9.87954 8.08544 9.91369C7.61272 9.93329 7.14373 9.93366 6.73006 9.92729C5.94773 9.91524 4.49317 9.87938 3.82577 9.57627L2.50005 12.9597Z" fill="#1567FB"/>
<rect x="18.572" y="0.359375" width="4.59459" height="19.95" fill="#1567FB"/>
<rect x="30.7142" y="16.1094" width="4.2" height="7.87645" transform="rotate(90 30.7142 16.1094)" fill="#1567FB"/>
<path d="M39.8906 0.344727L43.72 1.77841L36.6843 19.8267L32.3219 19.8267L39.8906 0.344727Z" fill="#1567FB"/>
<path d="M41.4292 1.77515L45.2656 0.35944L52.8578 19.9663L48.419 19.9664L41.4292 1.77515Z" fill="#1567FB"/>
<rect x="40.0002" y="0.359619" width="5.17857" height="1.4" fill="#1567FB"/>
<path d="M42.4995 19.9948L39.771 15.239L45.338 15.3013L42.4995 19.9948Z" fill="url(#paint0_linear_2612_1597)"/>
<rect x="55.3572" y="0.359619" width="4.28571" height="19.6" fill="#1567FB"/>
<path d="M55.9541 2.59253L59.6427 0.35957L72.857 20.0059L68.1009 20.0059L55.9541 2.59253Z" fill="#1567FB"/>
<path d="M68.5717 0.359619H72.8574V16.2749L68.7502 10.3346L68.5717 0.359619Z" fill="#1567FB"/>
<rect x="76.7858" y="0.359619" width="4.64286" height="19.6" fill="#1567FB"/>
<rect x="100" y="0.359619" width="3.85" height="16.4286" transform="rotate(90 100 0.359619)" fill="#1567FB"/>
<rect x="89.2858" y="6.30957" width="4.64286" height="14" fill="#1567FB"/>
<ellipse cx="91.6072" cy="6.48452" rx="2.32143" ry="1.225" fill="#1567FB"/>
<defs>
<linearGradient id="paint0_linear_2612_1597" x1="42.4995" y1="19.9948" x2="42.5699" y2="13.6952" gradientUnits="userSpaceOnUse">
<stop stop-color="#1BB5EA"/>
<stop offset="0.171875" stop-color="#04A3E7"/>
<stop offset="0.651042" stop-color="#1567FB"/>
</linearGradient>
</defs>
</svg>
