<svg width="245" height="50" viewBox="0 0 245 50" fill="none" xmlns="http://www.w3.org/2000/svg">
<rect y="0.0212402" width="12.25" height="45.7672" fill="#1567FB"/>
<path d="M6.125 29.2183C9.45349 30.6094 12.2858 30.7412 16.1875 30.7965C20.0892 30.8518 26.6899 30.8865 30.1001 29.5909C33.5102 28.2953 34.762 27.1492 36.75 24.8563C38.738 22.5634 39.3513 18.3634 39.3746 15.6989C39.398 13.0344 38.2998 8.86276 36.3521 6.55379C34.4043 4.24483 33.4873 3.52449 30.1001 2.20117C26.7128 0.877851 21.0231 -0.001579 17.1207 0.0218731C13.2183 0.0453252 7.875 -0.372154 4.375 1.60012L7.875 9.49056C9.52197 8.82058 15.1454 9.10753 17.0625 9.09601C18.9796 9.08449 21.4375 9.09648 23.1875 9.49056C24.8515 10.1406 25.9957 10.8339 26.9525 11.9682C27.9094 13.1025 28.4075 14.39 28.3961 15.6989C28.3846 17.0079 27.864 18.2912 26.8874 19.4176C26.1246 20.2973 25.1052 21.0566 23.8972 21.6502C23.2085 21.9886 22.4546 22.1679 21.6903 22.2354C19.9435 22.3896 18.0543 22.4037 16.4885 22.3815C14.5718 22.3543 11.0081 22.2735 9.37301 21.5901L6.125 29.2183Z" fill="#1567FB"/>
<rect x="45.5" y="0.810791" width="11.2568" height="44.9781" fill="#1567FB"/>
<rect x="75.25" y="36.3198" width="9.46908" height="19.2973" transform="rotate(90 75.25 36.3198)" fill="#1567FB"/>
<path d="M97.7314 0.778076L107.113 4.01038L89.876 44.7011L79.1881 44.7011L97.7314 0.778076Z" fill="#1567FB"/>
<path d="M101.5 4.00293L110.899 0.811161L129.5 45.0156L118.625 45.016L101.5 4.00293Z" fill="#1567FB"/>
<rect x="98" y="0.811279" width="12.6875" height="3.15636" fill="#1567FB"/>
<path d="M104.126 45.0802L97.4407 34.358L111.08 34.4983L104.126 45.0802Z" fill="url(#paint0_linear_1392_1045)"/>
<rect x="135.625" y="0.810791" width="10.5" height="44.189" fill="#1567FB"/>
<path d="M137.088 5.84521L146.125 0.810914L178.5 45.1043L166.848 45.1043L137.088 5.84521Z" fill="#1567FB"/>
<path d="M168 0.810791H178.5V36.6924L168.438 23.2998L168 0.810791Z" fill="#1567FB"/>
<rect x="188.125" y="0.810791" width="11.375" height="44.189" fill="#1567FB"/>
<rect x="245" y="0.810791" width="8.67999" height="40.25" transform="rotate(90 245 0.810791)" fill="#1567FB"/>
<rect x="218.75" y="14.2253" width="11.375" height="31.5636" fill="#1567FB"/>
<ellipse cx="224.438" cy="14.62" rx="5.6875" ry="2.76181" fill="#1567FB"/>
<defs>
<linearGradient id="paint0_linear_1392_1045" x1="104.126" y1="45.0802" x2="104.272" y2="30.8771" gradientUnits="userSpaceOnUse">
<stop stop-color="#1BB5EA"/>
<stop offset="0.171875" stop-color="#04A3E7"/>
<stop offset="0.651042" stop-color="#1567FB"/>
</linearGradient>
</defs>
</svg>
